<?xml version="1.0" standalone="no"?>
<!DOCTYPE svg PUBLIC "-//W3C//DTD SVG 20010904//EN"
 "http://www.w3.org/TR/2001/REC-SVG-20010904/DTD/svg10.dtd">
<svg version="1.0" xmlns="http://www.w3.org/2000/svg"
 width="700.000000pt" height="700.000000pt" viewBox="0 0 700.000000 700.000000"
 preserveAspectRatio="xMidYMid meet">
<metadata>
Created by potrace 1.11, written by Peter Selinger 2001-2013
</metadata>
<g transform="translate(0.000000,700.000000) scale(0.100000,-0.100000)"
fill="#000000" stroke="none">
<path d="M5978 6805 c-4 -4 -4 -13 -2 -20 3 -8 -3 -18 -13 -23 -16 -9 -19 -7
-20 11 -2 17 0 18 7 7 5 -8 12 -11 15 -8 4 4 4 12 0 18 -5 8 -25 10 -64 5 -31
-3 -72 -7 -91 -8 -19 -1 -39 -5 -45 -8 -5 -3 -17 -5 -25 -4 -20 1 -32 -18 -17
-27 20 -12 27 -9 21 10 -4 10 -2 13 3 7 14 -17 36 -17 30 0 -4 8 -2 15 3 15 6
0 10 -8 10 -17 0 -15 2 -16 10 -3 5 8 10 11 10 7 0 -4 8 -3 18 2 14 7 19 6 19
-4 0 -7 -7 -14 -16 -14 -23 -1 -76 -9 -76 -11 0 -2 -10 -4 -22 -5 -21 -2 -28
6 -24 28 0 4 -6 7 -15 7 -10 0 -14 -6 -11 -14 4 -10 1 -13 -8 -9 -8 3 -12 10
-8 17 4 7 1 7 -9 -1 -8 -7 -18 -10 -22 -6 -9 9 -36 -30 -28 -42 3 -5 -2 -4
-11 4 -14 11 -20 11 -32 1 -8 -7 -12 -17 -8 -24 3 -6 2 -7 -2 -3 -12 10 -16
39 -5 32 5 -3 12 0 16 6 5 9 -1 10 -22 5 -16 -4 -31 -11 -34 -14 -3 -4 -14 -7
-25 -6 -11 0 -25 -3 -31 -8 -6 -4 -19 -9 -30 -11 -10 -2 -38 -9 -61 -17 -40
-12 -41 -13 -27 -36 14 -20 14 -22 0 -20 -9 1 -22 8 -29 16 -10 12 -9 12 6 1
11 -9 17 -10 17 -2 0 11 -15 16 -35 11 -5 -1 -15 -3 -22 -3 -7 0 -9 -5 -6 -10
4 -6 0 -8 -10 -4 -9 3 -19 2 -22 -2 -7 -12 24 -23 38 -14 7 4 6 -1 -2 -11 -10
-12 -16 -14 -22 -5 -4 7 -14 9 -24 6 -9 -4 -14 -3 -10 3 3 6 2 10 -3 10 -6 0
-12 -7 -16 -15 -3 -8 -11 -15 -18 -15 -9 0 -8 3 2 10 8 5 11 10 7 10 -4 0 -19
-7 -32 -16 -26 -17 -25 -34 3 -34 15 0 15 2 2 11 -12 8 -10 9 7 4 12 -3 24 -1
28 5 8 13 25 13 25 0 0 -6 -3 -9 -7 -8 -5 1 -20 -5 -35 -12 -24 -11 -31 -11
-45 2 -15 12 -22 12 -40 3 -13 -6 -20 -15 -15 -20 4 -4 -1 -5 -11 -2 -14 5
-20 2 -24 -13 -5 -20 -13 -24 -45 -21 -12 2 -16 -3 -12 -13 5 -14 30 -14 57
-1 6 4 3 0 -7 -9 -10 -8 -23 -13 -27 -10 -5 3 -9 -1 -9 -8 0 -7 -7 -2 -16 10
-15 22 -41 21 -28 0 5 -8 1 -9 -11 -5 -14 6 -16 3 -12 -15 4 -15 -1 -28 -18
-44 -22 -20 -24 -20 -28 -3 -4 13 -1 16 12 11 14 -5 14 -4 2 12 -13 15 -17 16
-25 4 -6 -8 -25 -23 -43 -33 -17 -10 -29 -24 -27 -30 8 -19 -23 -40 -39 -26
-16 13 -28 5 -21 -14 7 -17 40 -11 68 12 l21 17 -20 -21 c-11 -12 -27 -23 -35
-25 -8 -2 -21 -10 -30 -18 -8 -9 -11 -10 -7 -3 10 13 1 33 -14 33 -5 0 -9 -5
-9 -11 0 -5 5 -7 11 -3 6 3 4 -5 -5 -18 -9 -14 -14 -26 -12 -29 2 -2 -6 -5
-19 -5 -19 -2 -21 1 -12 11 7 7 15 11 18 9 4 -2 9 3 13 11 10 26 -10 16 -55
-27 -24 -23 -37 -37 -29 -31 11 8 18 7 27 -3 11 -11 7 -12 -22 -9 -20 3 -35 0
-35 -5 0 -10 13 -14 40 -11 12 1 11 -1 -2 -9 -11 -7 -24 -7 -35 -1 -102 53
-494 172 -652 197 -18 3 -41 7 -50 9 -9 1 -41 6 -71 10 -30 4 -64 9 -74 11
-119 22 -528 21 -686 -2 -19 -3 -48 -7 -65 -9 -208 -25 -523 -111 -740 -202
-189 -79 -474 -242 -620 -355 -145 -111 -351 -303 -466 -433 -27 -31 -115
-143 -187 -240 -55 -75 -149 -233 -228 -385 -126 -246 -244 -625 -279 -905 -4
-27 -8 -62 -10 -77 -22 -161 -22 -443 -1 -648 12 -113 52 -330 80 -435 62
-232 166 -492 270 -675 82 -145 88 -154 119 -200 44 -65 167 -230 198 -265 99
-114 141 -158 204 -220 92 -89 128 -121 190 -170 28 -22 52 -42 55 -45 13 -14
222 -162 262 -185 307 -181 553 -285 853 -359 112 -28 124 -30 250 -50 50 -8
108 -18 130 -21 65 -11 523 -14 605 -5 238 28 379 56 565 112 298 90 577 222
825 391 70 47 180 129 206 152 6 6 37 33 70 60 92 79 235 225 329 337 264 316
453 672 579 1097 20 67 73 319 81 386 8 72 15 133 20 190 6 63 7 355 1 415 -8
93 -18 196 -21 212 -2 9 -7 38 -10 65 -4 26 -18 98 -32 158 -13 61 -26 117
-28 126 -22 100 -110 347 -171 477 -24 52 -44 96 -44 98 0 2 -34 62 -75 134
-71 124 -85 153 -67 148 8 -3 12 5 12 24 0 6 -9 3 -20 -7 -18 -17 -20 -17 -14
-2 3 9 10 17 15 17 5 0 8 6 7 13 -2 7 5 11 16 9 12 -2 16 1 10 10 -4 7 -4 10
1 6 4 -4 16 -3 26 3 15 8 17 6 12 -8 -4 -10 12 5 35 32 23 28 53 62 66 77 18
21 21 30 11 38 -6 5 -16 6 -20 2 -5 -4 -5 -1 -1 6 6 10 11 10 22 1 11 -9 18
-9 29 1 9 7 13 15 10 18 -3 3 4 11 14 19 13 8 19 24 19 43 -1 24 -4 28 -15 19
-9 -8 -10 -15 -3 -24 7 -9 6 -16 -5 -25 -12 -10 -15 -10 -16 1 0 8 -4 3 -10
-9 -5 -13 -6 -29 -2 -35 4 -7 -1 -6 -11 2 -9 8 -13 17 -8 20 5 3 11 14 15 23
4 12 12 16 24 11 15 -5 16 -3 6 7 -10 11 -10 17 3 31 19 21 51 14 33 -7 -6 -8
-8 -14 -3 -14 11 0 70 87 66 96 -2 3 5 12 14 19 16 11 16 15 5 29 -11 13 -17
14 -30 4 -11 -8 -10 -5 3 9 18 22 43 22 30 1 -4 -6 -1 -9 7 -6 8 3 26 29 41
59 15 30 31 59 36 64 11 15 35 74 31 78 -2 2 4 11 14 21 22 23 22 31 -3 33
-11 1 -20 -2 -20 -8 0 -5 6 -9 13 -9 8 -1 7 -5 -4 -13 -9 -7 -15 -21 -13 -31
2 -18 2 -18 -14 -2 -16 16 -16 18 0 27 9 5 15 16 12 24 -4 8 0 17 9 20 8 4 13
16 12 28 -2 17 3 22 21 23 13 1 21 -2 18 -7 -3 -5 -12 -9 -20 -9 -8 0 -14 -5
-14 -11 0 -5 5 -7 12 -3 7 4 8 3 4 -4 -4 -7 -4 -12 1 -12 12 0 34 51 27 62 -3
5 -13 7 -21 4 -8 -3 -11 -1 -8 5 4 5 15 7 26 4 11 -4 19 -2 19 4 0 11 -11 14
-40 12 -10 0 -11 1 -2 5 6 3 9 11 6 16 -5 7 -2 8 7 2 19 -12 40 -14 34 -4 -3
5 -1 12 5 15 6 4 8 16 4 27 -4 14 -2 18 5 14 6 -4 11 -4 12 1 0 7 3 20 12 56
2 6 7 22 11 34 4 13 2 32 -5 45 -15 27 -19 57 -8 63 4 3 6 -5 5 -18 -2 -12 3
-28 11 -35 7 -7 13 -9 14 -5 0 4 3 17 6 28 2 11 5 32 5 48 0 15 4 27 8 27 15
0 6 30 -12 36 -10 3 -18 10 -18 16 0 6 6 6 15 -2 19 -16 29 -7 31 28 1 15 5
34 9 44 4 11 0 18 -14 23 -17 5 -19 10 -11 25 13 24 13 33 0 25 -6 -4 -7 2 -1
18 7 17 6 29 -2 38 -10 11 -9 11 4 1 9 -6 20 -8 25 -4 4 4 4 0 -2 -8 -13 -18
-15 -90 -3 -90 5 0 9 14 9 30 0 37 0 33 10 69 6 21 5 31 -3 35 -9 3 -9 7 -1
13 25 19 9 92 -20 93 -5 0 -2 -8 7 -18 18 -19 17 -46 -1 -64 -15 -15 -16 -42
-2 -33 6 3 10 1 10 -4 0 -17 -20 -13 -27 4 -3 9 3 25 13 37 15 16 15 20 4 16
-11 -4 -16 1 -18 15 -1 17 1 18 8 7 5 -8 12 -11 16 -7 4 4 -1 16 -11 27 -16
18 -16 20 -1 26 9 3 16 10 16 16 0 5 -4 7 -9 4 -5 -3 -12 1 -15 9 -5 13 -2 14
15 4 12 -6 18 -17 15 -25 -3 -8 -1 -14 5 -14 7 0 9 10 5 25 -4 14 -2 25 4 25
6 0 6 9 0 24 -5 13 -6 27 -3 30 4 3 1 6 -5 6 -7 0 -12 5 -12 11 0 5 5 7 10 4
6 -3 10 -2 10 3 0 5 -9 12 -20 15 -11 3 -18 1 -14 -4 3 -5 0 -9 -5 -9 -6 0
-11 5 -11 10 0 6 -5 10 -11 10 -5 0 -8 -4 -5 -9 3 -4 -5 -13 -18 -19 -17 -8
-23 -7 -23 3 0 7 6 11 12 9 6 -3 12 2 12 9 0 8 -10 15 -23 15 -18 0 -21 -5
-18 -25 3 -16 1 -22 -6 -18 -6 4 -9 13 -6 21 7 17 -25 35 -61 34 -41 -1 -99 7
-111 14 -6 3 -13 2 -17 -4 -3 -5 -11 -10 -16 -10 -6 0 -8 4 -5 8 3 5 -1 9 -9
9 -8 0 -12 -4 -9 -9 3 -4 0 -8 -5 -8 -6 0 -11 4 -11 9 0 5 -11 9 -25 9 -20 0
-23 -3 -14 -14 11 -14 5 -34 -12 -34 -5 0 -9 5 -9 11 0 5 5 7 10 4 14 -9 12 4
-2 18 -16 15 -98 20 -98 7 0 -6 -5 -10 -11 -10 -5 0 -8 4 -5 8 3 5 -1 9 -9 9
-8 0 -15 -4 -15 -9 0 -4 5 -8 12 -8 9 0 9 -3 0 -12 -13 -13 -45 -21 -38 -10 6
11 -9 44 -16 37z m159 -25 c3 -10 2 -11 -4 -4 -4 6 -15 14 -23 17 -11 5 -9 6
4 4 11 -1 21 -9 23 -17z m103 -5 c16 3 31 2 33 -2 3 -5 -14 -8 -37 -9 -36 0
-42 3 -43 20 -2 19 -1 19 8 3 7 -12 18 -16 39 -12z m69 9 c15 10 58 -14 58
-31 0 -14 -2 -14 -12 1 -14 18 -30 22 -19 4 4 -7 3 -8 -5 -4 -6 4 -9 12 -6 17
4 5 2 9 -4 9 -5 0 -14 -6 -18 -14 -6 -12 -11 -9 -20 10 -10 22 -10 24 2 14 8
-7 18 -9 24 -6z m-416 -9 c4 -8 1 -17 -5 -21 -6 -4 -8 -3 -4 4 3 6 2 13 -4 17
-5 3 -10 -2 -10 -11 0 -10 -3 -15 -6 -11 -9 8 3 37 15 37 5 0 11 -7 14 -15z
m33 0 c-3 -23 -12 -26 -13 -5 -1 11 2 20 7 20 4 0 7 -7 6 -15z m188 -5 c2 -3
-13 -5 -34 -5 -21 0 -37 3 -34 6 4 8 60 6 68 -1z m318 -1 c2 -2 1 -3 -1 -2 -2
2 -10 -5 -18 -15 -12 -16 -13 -15 -6 3 6 18 5 18 -10 6 -10 -7 -17 -9 -17 -3
0 16 43 26 52 11z m-782 -34 c4 3 19 0 32 -5 22 -10 22 -10 -4 -5 -19 4 -28 1
-28 -7 0 -9 -3 -8 -10 2 -8 12 -10 12 -10 1 0 -8 -2 -12 -5 -9 -3 3 -2 13 2
24 4 11 8 13 11 6 2 -7 7 -10 12 -7z m912 -12 c20 -24 20 -53 -1 -45 -10 4
-11 7 -3 10 7 2 12 8 12 13 0 6 -5 7 -10 4 -6 -4 -9 -1 -8 7 2 8 -6 12 -22 10
-19 -2 -22 0 -10 8 21 13 25 13 42 -7z m-1032 -13 c0 -5 -5 -10 -11 -10 -5 0
-7 5 -4 10 3 6 8 10 11 10 2 0 4 -4 4 -10z m-26 -16 c3 -7 -5 -9 -21 -6 -17 3
-24 1 -20 -6 4 -5 -1 -13 -10 -17 -10 -3 -19 -1 -21 4 -2 6 -8 9 -12 6 -5 -3
-11 -1 -14 4 -7 10 13 9 31 -2 7 -4 14 0 17 11 7 19 43 24 50 6z m86 12 c0 -3
-4 -8 -10 -11 -5 -3 -10 -1 -10 4 0 6 5 11 10 11 6 0 10 -2 10 -4z m-174 -53
c-9 -9 -46 -10 -46 -2 0 6 -4 7 -10 4 -5 -3 -10 -1 -10 5 0 7 8 9 21 5 15 -5
19 -4 14 5 -5 8 -1 8 13 -1 12 -7 20 -15 18 -16z m-116 -28 c7 -9 8 -15 2 -15
-5 0 -12 7 -16 15 -3 8 -4 15 -2 15 2 0 9 -7 16 -15z m-187 -72 c-4 -10 -2
-14 5 -9 6 3 13 2 16 -3 4 -5 -2 -8 -11 -6 -10 2 -22 4 -27 4 -5 1 -3 8 4 16
16 20 21 19 13 -2z m-43 -33 c8 -15 8 -18 -3 -14 -8 3 -14 11 -14 19 0 20 4
19 17 -5z m30 0 c0 -5 -2 -10 -4 -10 -3 0 -8 5 -11 10 -3 6 -1 10 4 10 6 0 11
-4 11 -10z m-120 -60 c0 -5 -8 -10 -17 -10 -15 0 -16 2 -3 10 19 12 20 12 20
0z m-103 -67 c0 -9 -4 -10 -14 -2 -7 6 -13 12 -13 14 0 1 6 2 13 2 8 0 14 -6
14 -14z m-22 -12 c3 -5 0 -13 -6 -17 -8 -5 -9 -3 -4 6 6 10 4 12 -8 7 -10 -3
-17 -2 -17 3 0 13 27 13 35 1z m1676 -30 c-6 -10 -7 -22 -3 -26 4 -5 2 -5 -5
-2 -13 8 -6 47 9 47 5 0 4 -8 -1 -19z m22 -6 c-3 -9 -8 -14 -10 -11 -3 3 -2 9
2 15 9 16 15 13 8 -4z m-7 -44 c0 -15 -3 -17 -18 -7 -17 10 -17 11 0 18 9 3
17 7 17 7 1 1 1 -7 1 -18z m-1852 -63 c-3 -4 -11 -5 -19 -1 -21 7 -19 12 4 10
11 0 18 -5 15 -9z m1831 -50 c-3 -11 -7 -23 -10 -27 -4 -3 -4 7 -1 23 4 21 2
26 -9 22 -9 -3 -12 0 -8 10 8 22 33 -2 28 -28z m-35 -113 c-6 -8 -9 -19 -6
-24 4 -5 1 -13 -5 -16 -5 -4 -8 -13 -5 -21 3 -8 0 -11 -10 -7 -8 3 -14 -1 -14
-11 0 -9 -4 -16 -10 -16 -14 0 -8 23 10 37 8 7 11 13 6 13 -5 0 -4 6 3 13 6 8
9 24 6 36 -3 19 -2 21 10 11 10 -8 15 -9 15 -2 0 6 -4 14 -10 17 -5 3 -10 11
-10 18 0 6 7 1 16 -11 12 -18 13 -26 4 -37z m-48 -114 c8 11 9 11 6 1 -4 -16
-22 -18 -25 -2 -1 7 0 6 4 -1 4 -8 8 -7 15 2z m-82 -242 c0 -14 -17 -10 -23 5
-4 10 -1 13 9 9 7 -3 14 -9 14 -14z m-25 -35 c-14 -14 -19 -29 -16 -46 0 -5
-3 -8 -8 -8 -6 0 -9 63 -2 65 1 1 10 1 21 2 18 2 19 0 5 -13z m-54 -57 c-10
-9 -11 -8 -5 6 3 10 9 15 12 12 3 -3 0 -11 -7 -18z m21 -16 c-8 -4 -13 -12
-13 -17 1 -5 -3 -9 -9 -8 -31 3 -33 6 -10 19 26 15 54 21 32 6z m-46 -83 c4
-6 3 -8 -4 -4 -6 3 -13 2 -17 -4 -3 -5 -12 -10 -18 -10 -7 0 -3 7 7 15 24 18
23 18 32 3z m-23 -45 c-5 -12 -18 -17 -36 -14 -5 1 -5 -8 -2 -20 6 -19 5 -20
-8 -8 -12 12 -12 17 -1 34 15 23 55 29 47 8z m-143 -187 c0 -3 -4 -8 -10 -11
-5 -3 -10 -1 -10 4 0 6 5 11 10 11 6 0 10 -2 10 -4z m-43 -43 c-5 -13 -17 -22
-25 -21 -8 2 -17 -3 -19 -10 -3 -8 1 -10 14 -5 19 6 18 5 -7 -14 -13 -10 -16
-8 -17 7 -2 19 12 35 31 35 5 0 11 6 14 14 3 9 0 11 -8 6 -8 -5 -11 -4 -7 2 3
5 13 10 21 10 11 0 12 -5 3 -24z m-67 -52 c0 -5 -7 -12 -16 -15 -14 -5 -15 -4
-4 9 14 17 20 19 20 6z"/>
<path d="M6000 6798 c0 -9 5 -20 10 -23 13 -8 13 5 0 25 -8 13 -10 13 -10 -2z"/>
<path d="M5585 6740 c4 -6 11 -8 16 -5 14 9 11 15 -7 15 -8 0 -12 -5 -9 -10z"/>
<path d="M4902 6449 c2 -7 10 -15 17 -17 8 -3 12 1 9 9 -2 7 -10 15 -17 17 -8
3 -12 -1 -9 -9z"/>
<path d="M4775 6369 c-10 -15 3 -25 16 -12 7 7 7 13 1 17 -6 3 -14 1 -17 -5z"/>
<path d="M5955 5149 c-4 -6 -14 -8 -22 -4 -13 4 -14 3 -4 -9 14 -17 41 -10 41
10 0 17 -6 18 -15 3z"/>
</g>
</svg>
