<svg fill="none" height="71" viewBox="0 0 71 71" width="71" xmlns="http://www.w3.org/2000/svg"><circle cx="34.6379" cy="35.6379" fill="#fcba3b" r="30" transform="matrix(.98561977 -.16897829 .16897829 .98561977 -5.523931 6.365534)"/><path d="m39.7878 24.9452c6.4025 1.248 13.2346-.2496 18.5777-4.69 5.343-4.4403 8.0655-10.8831 8.0101-17.40586-6.4025-1.24801-13.2347.24965-18.5777 4.68999-5.343 4.44037-8.0655 10.88307-8.0101 17.40587z" fill="#348841"/><path d="m39.7878 24.9452-.5.0043.0035.4083.4008.0782zm26.5878-22.09586.4999-.00425-.0034-.40838-.4009-.07813zm-23.3089 18.93826c-.2069.1829-.2262.4989-.0433.7057.1829.2069.4989.2263.7058.0434zm18.4147-14.95008c.2068-.18293.2262-.49892.0433-.70578-.1829-.20685-.4989-.22625-.7058-.04331zm-3.4355 13.03318c-5.2211 4.339-11.8988 5.8047-18.1624 4.5837l-.1914.9816c6.5414 1.275 13.528-.2546 18.9929-4.7962zm7.8297-17.01711c.0542 6.3813-2.6086 12.67811-7.8297 17.01711l.6391.7691c5.465-4.5417 8.2472-11.13048 8.1905-17.79471zm-17.7581 5.07028c5.221-4.339 11.8988-5.80471 18.1624-4.58376l.1913-.98153c-6.5413-1.27508-13.5279.25453-18.9929 4.79621zm-7.8297 17.01713c-.0543-6.3813 2.6086-12.6781 7.8297-17.01713l-.6392-.76908c-5.465 4.54171-8.2471 11.13041-8.1905 17.79471zm3.4414-2.4043 17.7522-15.69918-.6625-.74909-17.7522 15.69917z" fill="#42c958" fill-opacity=".6"/><g fill="#efad2f"><circle cx="33.5032" cy="14.276" r="2.5" transform="matrix(.98561977 -.16897829 .16897829 .98561977 -1.93055 5.866606)"/><circle cx="23.5032" cy="17.276" r="2.5" transform="matrix(.98561977 -.16897829 .16897829 .98561977 -2.581288 4.219963)"/><circle cx="53.5032" cy="47.276" r="2.5" transform="matrix(.98561977 -.16897829 .16897829 .98561977 -7.219229 9.720719)"/><circle cx="47.5032" cy="40.276" r="2.5" transform="matrix(.98561977 -.16897829 .16897829 .98561977 -6.122663 8.606188)"/><circle cx="56.5032" cy="38.276" r="2.5" transform="matrix(.98561977 -.16897829 .16897829 .98561977 -5.655284 10.098232)"/></g></svg>