<svg width="58" height="58" viewBox="0 0 58 58" fill="none" xmlns="http://www.w3.org/2000/svg">
<rect x="0.5" y="0.5" width="57" height="57" rx="4.5" fill="white" stroke="#348841"/>
<line x1="18.4614" y1="51.3232" x2="18.4614" y2="6.70786" stroke="#348841"/>
<line x1="40.7693" y1="51.3079" x2="40.7693" y2="6.69248" stroke="#348841"/>
<line x1="29.6155" y1="51.3079" x2="29.6155" y2="6.69248" stroke="#348841"/>
<path d="M32.9615 40.7117C32.9615 42.5916 31.4375 44.1156 29.5577 44.1156C27.6778 44.1156 26.1538 42.5916 26.1538 40.7117C26.1538 38.8318 27.6778 37.3079 29.5577 37.3079C31.4375 37.3079 32.9615 38.8318 32.9615 40.7117Z" fill="#348841" stroke="#348841"/>
<path d="M21.8077 17.2886C21.8077 19.1685 20.2837 20.6925 18.4038 20.6925C16.524 20.6925 15 19.1685 15 17.2886C15 15.4087 16.524 13.8848 18.4038 13.8848C20.2837 13.8848 21.8077 15.4087 21.8077 17.2886Z" fill="#348841" stroke="#348841"/>
<path d="M44.1153 20.6348C44.1153 22.5147 42.5914 24.0387 40.7115 24.0387C38.8316 24.0387 37.3076 22.5147 37.3076 20.6348C37.3076 18.7549 38.8316 17.231 40.7115 17.231C42.5914 17.231 44.1153 18.7549 44.1153 20.6348Z" fill="#348841" stroke="#348841"/>
</svg>
